<svg width="32" height="32" viewBox="0 0 32 32" fill="none" xmlns="http://www.w3.org/2000/svg">
<circle cx="16" cy="16" r="16" fill="#F6688E"/>
<path fill-rule="evenodd" clip-rule="evenodd" d="M8.66675 13.25C8.66675 9.20746 11.9576 5.91663 16.0001 5.91663C20.0426 5.91663 23.3334 9.20746 23.3334 13.25C23.3334 18.3558 16.9534 25.4783 16.6784 25.7808L16.0001 26.5325L15.3217 25.7808C15.0467 25.4783 8.66675 18.3558 8.66675 13.25ZM19.1846 11.9976C19.2413 12.1796 19.1949 12.3757 19.0636 12.5094L17.9149 13.6777C17.8924 13.7006 17.8821 13.7337 17.8874 13.7661L18.1586 15.4158C18.1896 15.6044 18.1167 15.7915 17.9683 15.904C17.8844 15.9677 17.7863 16 17.6875 16C17.6115 16 17.5351 15.9808 17.4644 15.9421L16.0446 15.1632C16.0167 15.1479 15.9834 15.1479 15.9556 15.1632L14.5358 15.9421C14.3734 16.0311 14.1803 16.0166 14.0319 15.904C13.8835 15.7915 13.8106 15.6045 13.8416 15.4158L14.1128 13.7661C14.1181 13.7337 14.1078 13.7006 14.0852 13.6777L12.9366 12.5094C12.8052 12.3757 12.7588 12.1796 12.8155 11.9976C12.8722 11.8155 13.0202 11.6854 13.2017 11.6578L14.7891 11.4171C14.8203 11.4124 14.8472 11.392 14.8612 11.3625L15.5711 9.86157C15.6522 9.68993 15.8166 9.58329 16.0001 9.58329C16.1835 9.58329 16.3479 9.68993 16.4291 9.86157L17.139 11.3625C17.1529 11.392 17.1799 11.4124 17.211 11.4171L18.7984 11.6578C18.98 11.6854 19.128 11.8155 19.1846 11.9976Z" fill="white"/>
</svg>
